<?xml version="1.0" encoding="UTF-8" standalone="no"?>

<svg
   width="67.659431mm"
   height="67.659462mm"
   viewBox="0 0 67.659431 67.659462"
   version="1.1"
   id="svg1"
   inkscape:version="1.3 (0e150ed6c4, 2023-07-21)"
   sodipodi:docname="logo2_circledS.svg"
   inkscape:dataloss="true"
   xmlns:inkscape="http://www.inkscape.org/namespaces/inkscape"
   xmlns:sodipodi="http://sodipodi.sourceforge.net/DTD/sodipodi-0.dtd"
   xmlns="http://www.w3.org/2000/svg"
   xmlns:svg="http://www.w3.org/2000/svg">
  <sodipodi:namedview
     id="namedview1"
     pagecolor="#505050"
     bordercolor="#eeeeee"
     borderopacity="1"
     inkscape:showpageshadow="0"
     inkscape:pageopacity="0"
     inkscape:pagecheckerboard="0"
     inkscape:deskcolor="#505050"
     inkscape:document-units="mm"
     inkscape:zoom="0.70710678"
     inkscape:cx="231.93102"
     inkscape:cy="594.6768"
     inkscape:window-width="1920"
     inkscape:window-height="991"
     inkscape:window-x="-9"
     inkscape:window-y="-9"
     inkscape:window-maximized="1"
     inkscape:current-layer="layer1"
     showguides="true">
    <sodipodi:guide
       position="-209.92271,263.17027"
       orientation="1,0"
       id="guide2"
       inkscape:locked="false" />
  </sodipodi:namedview>
  <defs
     id="defs1">
    <clipPath
       clipPathUnits="userSpaceOnUse"
       id="clipPath38">
      <path
         style="font-variation-settings:'wdth' 75, 'wght' 600;opacity:1;fill:#02a500;fill-opacity:1;stroke:none;stroke-width:0.587929;stroke-dasharray:none"
         d="m 30.101602,124.44386 c -0.201056,-11.22447 0.49498,-23.0539 2.8648,-34.027296 2.09752,-9.712617 4.752397,-20.932884 10.022408,-29.356874 5.36381,-8.573946 11.736792,-15.262317 20.191115,-20.812795 8.297211,-5.447267 17.736905,-8.590668 27.406511,-10.829977 11.763784,-2.724256 25.172794,-2.449777 37.245194,-2.7031 7.65881,-0.16069 19.08356,0.06689 26.66747,1.147849 9.07841,1.293605 14.60377,1.960786 23.15275,5.278332 8.49165,3.295303 16.3159,7.272952 23.10141,13.349443 5.40542,4.840598 11.08136,12.692063 14.25486,19.217334 4.18104,8.596812 6.11522,16.344755 7.97599,25.721604 2.06353,10.39823 2.47124,22.41502 2.57749,33.01548 0.077,7.66153 -0.16085,17.07058 -1.29166,24.64857 -1.36205,9.12796 -2.64765,16.97593 -5.67228,25.69524 -2.57749,7.4303 -6.02796,14.00527 -10.85666,20.21305 -4.04858,5.20483 -9.82166,10.72482 -15.49246,14.08997 -8.72943,5.18017 -16.84036,7.92224 -26.73326,10.19554 -11.66431,2.68039 -25.71523,2.98302 -37.68357,2.98302 -11.96834,0 -25.77098,-0.2065 -37.412808,-2.98302 -10.758888,-2.56598 -17.728583,-4.49783 -27.122777,-10.33617 -4.82403,-2.99803 -11.854781,-9.53154 -15.243339,-14.08973 -5.291555,-7.11794 -9.029881,-14.78243 -11.810759,-23.20455 -2.576088,-7.80176 -2.979912,-11.42265 -4.226617,-19.54353 -1.182149,-7.70027 -1.774274,-19.87915 -1.913808,-27.66839 z"
         id="path38"
         sodipodi:nodetypes="ssssssssssssssssssssssss" />
    </clipPath>
  </defs>
  <g
     inkscape:label="Warstwa 1"
     inkscape:groupmode="layer"
     id="layer1"
     transform="translate(-317.24177,-86.254171)">
    <rect
       style="fill:#0052a5;fill-opacity:1;stroke-width:0.264999"
       id="rect5"
       width="67.659431"
       height="67.659462"
       x="317.24179"
       y="86.254173"
       ry="6.8755112" />
    <g
       style="clip-rule:evenodd;fill-rule:evenodd;stroke-linejoin:round;stroke-miterlimit:2"
       id="g5"
       transform="matrix(0.25957582,0,0,0.25957582,317.89206,86.924426)"
       clip-path="url(#clipPath38)"
       inkscape:export-filename="logo2_circledS.svg"
       inkscape:export-xdpi="300"
       inkscape:export-ydpi="300">
      <path
         fill="none"
         d="M 0,0 H 256 V 256 H 0 Z"
         id="path3" />
      <g
         fill="#ffffff"
         id="g4">
        <circle
           cx="120.671"
           cy="77.206001"
           r="34.946999"
           id="circle3" />
        <path
           d="m 159.108,114.575 c -6.727,6.913 -15.289,12.048 -24.877,14.602 A 50.949,50.949 0 0 1 122,130.667 c -10.881,0 -20.98,-3.444 -29.273,-9.296 -1.453,1.354 -3.007,2.841 -3.174,3.061 -1.173,1.379 -1.718,2.841 -1.718,4.387 0,2.379 1.212,4.345 3.683,5.893 3.055,2.027 9.063,3.725 18.053,5.096 0.097,0.019 0.197,0.033 0.3,0.047 l 35.399,5.265 c 7.82,1.218 15.726,3.261 23.626,6.107 7.94,2.883 13.666,6.605 17.219,11.159 3.555,4.556 5.312,10.035 5.312,16.429 0,10.744 -4.976,19.356 -14.925,25.833 -12.668,8.24 -31.438,12.377 -56.351,12.377 -13.043,0 -23.66,-1.427 -31.858,-4.181 -8.145,-2.761 -14.463,-6.692 -18.975,-11.745 -3.261,-3.681 -4.893,-7.481 -4.893,-11.417 0,-5.054 1.674,-9.991 4.976,-14.798 3.303,-4.803 10.953,-11.706 22.951,-20.565 -7.739,-1.966 -13.296,-4.265 -16.638,-6.856 -0.047,-0.041 -0.091,-0.075 -0.133,-0.111 -0.025,-0.016 -0.044,-0.036 -0.067,-0.05 -0.025,-0.019 -0.05,-0.036 -0.075,-0.064 l -0.119,-0.092 c -0.006,-0.008 -0.009,-0.008 -0.014,-0.019 l -0.003,-0.003 c -0.1,-0.078 -0.195,-0.161 -0.289,-0.242 a 0.877,0.877 0 0 1 -0.106,-0.089 c -0.044,-0.038 -0.086,-0.075 -0.128,-0.108 -0.008,-0.011 -0.016,-0.019 -0.025,-0.022 -0.047,-0.047 -0.094,-0.084 -0.144,-0.134 -0.064,-0.052 -0.125,-0.111 -0.184,-0.161 -0.011,-0.008 -0.019,-0.019 -0.03,-0.022 -0.003,0 -0.003,-0.006 -0.006,-0.008 0,0 -0.005,-0.006 -0.008,-0.006 a 3.38,3.38 0 0 0 -0.231,-0.214 1.026,1.026 0 0 0 -0.111,-0.106 c 0,-0.005 -0.006,-0.005 -0.006,-0.005 -0.036,-0.045 -0.08,-0.081 -0.116,-0.114 -0.006,-0.006 -0.009,-0.009 -0.014,-0.02 a 1.902,1.902 0 0 0 -0.103,-0.091 c -0.064,-0.073 -0.134,-0.137 -0.206,-0.209 a 1.193,1.193 0 0 0 -0.133,-0.133 c -0.003,-0.006 -0.003,-0.009 -0.006,-0.009 a 1.978,1.978 0 0 0 -0.078,-0.083 c -0.011,-0.011 -0.022,-0.02 -0.03,-0.033 -0.039,-0.039 -0.072,-0.081 -0.114,-0.114 -0.142,-0.159 -0.281,-0.315 -0.42,-0.467 -0.017,-0.023 -0.033,-0.034 -0.047,-0.059 -0.02,-0.017 -0.034,-0.039 -0.056,-0.058 a 20.085,20.085 0 0 1 -0.578,-0.715 c -0.025,-0.022 -0.042,-0.05 -0.061,-0.072 -0.011,-0.011 -0.02,-0.028 -0.031,-0.042 -0.008,-0.014 -0.016,-0.022 -0.025,-0.036 -0.956,-1.262 -1.657,-2.574 -2.104,-3.944 a 11.924,11.924 0 0 1 -0.595,-3.756 c 0,-2.135 0.42,-4.098 1.173,-5.938 0.792,-1.84 2.046,-3.678 3.8,-5.521 1.521,-1.587 7.192,-5.707 11.698,-8.898 A 51.182,51.182 0 0 1 74.691,98.607 l 1.702,-0.984 5.901,-3.394 c 6.611,14.444 21.203,24.529 38.077,24.529 23.048,0 41.848,-18.8 41.848,-41.848 A 41.552,41.552 0 0 0 154.474,52.7 l 0.742,-0.476 6.733,-4.086 c 5.799,-3.353 12.707,-9.162 19.404,-9.162 2.949,0 5.157,0.672 7.18,2.443 2.024,1.774 3.042,3.922 3.042,6.452 0,2.658 -0.887,4.896 -2.702,6.708 -1.813,1.771 -4.131,2.696 -6.917,2.696 -1.178,0 -2.741,-0.211 -4.723,-0.628 -2.279,-0.55 -3.489,-1.148 -5.218,-1.362 -1.506,-0.186 -2.596,-0.311 -4.831,0.909 a 50.567,50.567 0 0 1 5.774,23.515 c 0,13.466 -5.268,25.736 -13.85,34.866 m -84.094,32.307 a 0.877,0.877 0 0 1 -0.106,-0.089 z m -0.631,-0.55 a 3.38,3.38 0 0 0 -0.231,-0.214 z m 28.505,10.786 c -7.823,6.691 -13.046,12.126 -15.64,16.307 -2.546,4.139 -3.839,8.15 -3.839,11.995 0,3.266 1.293,6.435 3.839,9.488 2.594,3.052 6.983,5.559 13.171,7.525 6.227,1.968 14.005,2.93 23.413,2.93 11.116,0 20.649,-1.209 28.591,-3.597 7.945,-2.424 13.671,-5.518 17.093,-9.238 2.513,-2.969 3.809,-6.438 3.809,-10.411 0,-3.427 -1.046,-6.354 -3.136,-8.692 -2.093,-2.385 -6.018,-4.434 -11.745,-6.191 -5.771,-1.751 -11.122,-3.047 -16.137,-3.889 z"
           id="path4" />
      </g>
    </g>
  </g>
</svg>
