<?xml version="1.0" encoding="UTF-8" standalone="no"?>
<!-- Uploaded to: SVG Repo, www.svgrepo.com, Generator: SVG Repo Mixer Tools -->

<svg
   fill="#000000"
   width="800px"
   height="800px"
   viewBox="0 0 14 14"
   role="img"
   focusable="false"
   aria-hidden="true"
   version="1.1"
   id="svg1"
   sodipodi:docname="StreetView.svg"
   inkscape:version="1.3.2 (091e20e, 2023-11-25, custom)"
   xmlns:inkscape="http://www.inkscape.org/namespaces/inkscape"
   xmlns:sodipodi="http://sodipodi.sourceforge.net/DTD/sodipodi-0.dtd"
   xmlns="http://www.w3.org/2000/svg"
   xmlns:svg="http://www.w3.org/2000/svg">
  <defs
     id="defs1" />
  <sodipodi:namedview
     id="namedview1"
     pagecolor="#ffffff"
     bordercolor="#999999"
     borderopacity="1"
     inkscape:showpageshadow="0"
     inkscape:pageopacity="0"
     inkscape:pagecheckerboard="0"
     inkscape:deskcolor="#d1d1d1"
     inkscape:zoom="1.02625"
     inkscape:cx="400"
     inkscape:cy="400"
     inkscape:window-width="1920"
     inkscape:window-height="1017"
     inkscape:window-x="-8"
     inkscape:window-y="-8"
     inkscape:window-maximized="1"
     inkscape:current-layer="svg1" />
  <path
     d="M 4.78158,2.71429 C 4.78158,1.76752 5.5491,1 6.49587,1 c 0.94677,0 1.71428,0.76752 1.71428,1.71429 0,0.94676 -0.76751,1.71428 -1.71428,1.71428 -0.94677,0 -1.71429,-0.76752 -1.71429,-1.71428 z m 3,2.14285 -0.30428,0 c -0.60833,0.27973 -1.32831,0.29181 -1.96286,0 l -0.30429,0 c -0.71009,0 -1.28571,0.57563 -1.28571,1.28572 l 0,2.78571 c 0,0.35505 0.28781,0.64286 0.64286,0.64286 l 0.42857,0 0,2.78571 C 4.99587,12.71219 5.28368,13 5.63873,13 l 1.71428,0 c 0.35505,0 0.64286,-0.28781 0.64286,-0.64286 l 0,-2.78571 0.42857,0 c 0.35504,0 0.64286,-0.28781 0.64286,-0.64286 l 0,-2.78571 c 0,-0.71009 -0.57563,-1.28572 -1.28572,-1.28572 z m 2.29398,5.06657"
     id="path1"
     inkscape:label="path1"
     style="fill:#ecdf23;fill-opacity:1" />
</svg>
