<?xml version="1.0" encoding="UTF-8" standalone="no"?>
<svg
   viewBox="0 0 2048 2048"
   version="1.1"
   id="svg7"
   sodipodi:docname="Data-light.svg"
   inkscape:version="1.3.2 (091e20e, 2023-11-25, custom)"
   xmlns:inkscape="http://www.inkscape.org/namespaces/inkscape"
   xmlns:sodipodi="http://sodipodi.sourceforge.net/DTD/sodipodi-0.dtd"
   xmlns="http://www.w3.org/2000/svg"
   xmlns:svg="http://www.w3.org/2000/svg"
   xmlns:rdf="http://www.w3.org/1999/02/22-rdf-syntax-ns#"
   xmlns:cc="http://creativecommons.org/ns#"
   xmlns:dc="http://purl.org/dc/elements/1.1/">
  <sodipodi:namedview
     id="namedview7"
     pagecolor="#a2a2a2"
     bordercolor="#999999"
     borderopacity="1"
     inkscape:showpageshadow="0"
     inkscape:pageopacity="0"
     inkscape:pagecheckerboard="0"
     inkscape:deskcolor="#d1d1d1"
     inkscape:zoom="0.2834642"
     inkscape:cx="592.66743"
     inkscape:cy="823.73718"
     inkscape:window-width="1920"
     inkscape:window-height="1017"
     inkscape:window-x="-8"
     inkscape:window-y="-8"
     inkscape:window-maximized="1"
     inkscape:current-layer="svg7" />
  <defs
     id="defs1">
    <style
       id="style1">.cls-1{fill:none;stroke:#000;stroke-width:76px;stroke-linecap:round;stroke-linejoin:round;}</style>
  </defs>
  <title
     id="title1">Data Icon</title>
  <path
     class="cls-1"
     d="M 102,522 V 1888 H 1300 V 1729"
     id="path1"
     style="display:inline;fill:none;fill-opacity:1;stroke:#ffffff;stroke-width:77;stroke-dasharray:none;stroke-opacity:1" />
  <path
     class="cls-1"
     d="M 276,344 V 1710 H 1476 V 138 H 560 Z M 560,138 V 344 H 276 m 1200,112 h 99 L 1685.5946,311.22155 M 1476,674 h 136 l 68,-94 h 108 m -312,340 h 168 m -168,248 h 136 l 68,92 h 108 m -312,124 h 98 l 116.0153,150.9597"
     id="path2"
     style="display:inline;fill:none;fill-opacity:1;stroke:#ffffff;stroke-width:77;stroke-dasharray:none;stroke-opacity:1" />
  <path
     class="cls-1"
     d="m 592,466 h 51.99998 M 834,466 h 94 m 192,0 h 52 M 456,618 h 52 m 186,0 h 94 m 188,0 h 94 m 186,0 h 52 M 456,770 h 52 m 186,0 h 94 m 188,0 h 94 m 186,0 h 52 M 456,924 h 52 m 186,0 h 94 m 188,0 h 94 m 186,0 h 52 m -852,152 h 52 m 186,0 h 94 m 188,0 h 94 m 186,0 h 52 m -852,152 h 52 m 186,0 h 94 m 188,0 h 94 m 186,0 h 52 m -852,152 h 52 m 186,0 h 94 m 188,0 h 94 m 186,0 h 52 m -852,154 h 52 m 186,0 h 94 m 188,0 h 94 m 186,0 h 52"
     id="path3"
     style="display:inline;fill:none;fill-opacity:1;stroke:#ffffff;stroke-width:77;stroke-dasharray:none;stroke-opacity:1" />
  <circle
     class="cls-1"
     cx="1740"
     cy="240"
     r="80"
     id="circle3"
     style="display:inline;fill:none;fill-opacity:1;stroke:#ffffff;stroke-width:77;stroke-dasharray:none;stroke-opacity:1" />
  <circle
     class="cls-1"
     cx="1868"
     cy="580"
     r="80"
     id="circle4"
     style="display:inline;fill:none;fill-opacity:1;stroke:#ffffff;stroke-width:77;stroke-dasharray:none;stroke-opacity:1" />
  <circle
     class="cls-1"
     cx="1724"
     cy="920"
     r="80"
     id="circle5"
     style="display:inline;fill:none;fill-opacity:1;stroke:#ffffff;stroke-width:77;stroke-dasharray:none;stroke-opacity:1" />
  <circle
     class="cls-1"
     cx="1868"
     cy="1260"
     r="80"
     id="circle6"
     style="display:inline;fill:none;fill-opacity:1;stroke:#ffffff;stroke-width:77;stroke-dasharray:none;stroke-opacity:1" />
  <circle
     class="cls-1"
     cx="1740"
     cy="1600"
     r="80"
     id="circle7"
     style="display:inline;fill:none;fill-opacity:1;stroke:#ffffff;stroke-width:77;stroke-dasharray:none;stroke-opacity:1" />
  <metadata
     id="metadata7">
    <rdf:RDF>
      <cc:Work
         rdf:about="">
        <dc:title>Data Icon</dc:title>
      </cc:Work>
    </rdf:RDF>
  </metadata>
</svg>
