<?xml version="1.0" encoding="UTF-8" standalone="no"?>
<!-- Uploaded to: SVG Repo, www.svgrepo.com, Generator: SVG Repo Mixer Tools -->

<svg
   fill="#000000"
   width="800px"
   height="800px"
   viewBox="0 -1.5 35 35"
   version="1.1"
   id="svg1"
   sodipodi:docname="folder-light.svg"
   inkscape:version="1.3.2 (091e20e, 2023-11-25, custom)"
   xmlns:inkscape="http://www.inkscape.org/namespaces/inkscape"
   xmlns:sodipodi="http://sodipodi.sourceforge.net/DTD/sodipodi-0.dtd"
   xmlns="http://www.w3.org/2000/svg"
   xmlns:svg="http://www.w3.org/2000/svg">
  <defs
     id="defs1" />
  <sodipodi:namedview
     id="namedview1"
     pagecolor="#ffffff"
     bordercolor="#999999"
     borderopacity="1"
     inkscape:showpageshadow="0"
     inkscape:pageopacity="0"
     inkscape:pagecheckerboard="0"
     inkscape:deskcolor="#d1d1d1"
     inkscape:zoom="1.02625"
     inkscape:cx="400"
     inkscape:cy="322.04629"
     inkscape:window-width="1920"
     inkscape:window-height="1017"
     inkscape:window-x="-8"
     inkscape:window-y="-8"
     inkscape:window-maximized="1"
     inkscape:current-layer="svg1" />
  <title
     id="title1">folder</title>
  <path
     d="M8.431 9.155h20.958c2.158 0 2.158-2.238 0.084-2.238h-14.486c-0.83 0-1.244-1.244-1.244-1.244s-0.581-1.825-1.743-1.825h-10.789c-1.576 0-1.162 1.825-1.162 1.825s2.407 20.47 2.573 21.715 1.453 1.612 1.453 1.612l2.821-18.103c0.208-1.327 1.12-1.7 1.535-1.742zM33.658 9.942h-24.563c-0.733 0-1.328 0.594-1.328 1.327l-2.572 16.4c0 0.734 0.595 1.328 1.328 1.328h24.563c0.732 0 1.328-0.594 1.328-1.328l2.572-16.4c0-0.733-0.593-1.327-1.328-1.327z"
     id="path1"
     style="fill:#ffffff;fill-opacity:1" />
</svg>
