<?xml version="1.0" encoding="iso-8859-1"?>
<!-- Uploaded to: SVG Repo, www.svgrepo.com, Generator: SVG Repo Mixer Tools -->
<svg height="800px" width="800px" version="1.1" id="Capa_1" xmlns="http://www.w3.org/2000/svg" xmlns:xlink="http://www.w3.org/1999/xlink" 
	 viewBox="0 0 450.217 450.217" xml:space="preserve">
<g>
	<g>
		<g>
			<path style="fill:#010002;" d="M441.391,398.682L276.917,234.209c16.282-24.491,25.028-53.193,25.028-83.253
				c0-40.31-15.713-78.229-44.236-106.744C229.211,15.704,191.315,0,150.981,0C110.655,0,72.735,15.704,44.212,44.211
				C15.705,72.734,0.009,110.646,0.009,150.956c0,40.318,15.696,78.229,44.211,106.753c28.523,28.507,66.427,44.211,106.744,44.211
				c30.076,0,58.778-8.746,83.261-25.004l164.425,164.433c5.698,5.714,13.29,8.868,21.37,8.868c8.064,0,15.648-3.129,21.386-8.844
				C453.145,429.587,453.145,410.444,441.391,398.682z M220.326,220.317c-18.525,18.517-43.146,28.726-69.361,28.726
				c-26.19,0-50.82-10.209-69.353-28.726c-18.533-18.533-28.735-43.163-28.735-69.361c0-26.207,10.201-50.828,28.726-69.353
				c18.533-18.533,43.171-28.735,69.369-28.735c26.207,0,50.828,10.201,69.361,28.735c18.517,18.517,28.71,43.138,28.71,69.353
				C249.044,177.154,238.851,201.784,220.326,220.317z"/>
		</g>
		<g>
			<path style="fill:#010002;" d="M207.475,144.258h-45.512v-45.52c0-3.942-3.203-7.129-7.153-7.129
				c-3.926,0-7.137,3.195-7.137,7.129v45.52h-45.52c-3.942,0-7.129,3.195-7.129,7.137s3.186,7.145,7.129,7.145h45.52v45.512
				c0,3.942,3.211,7.145,7.137,7.145c3.95,0,7.153-3.203,7.153-7.145V158.54h45.512c3.95,0,7.153-3.203,7.153-7.145
				S211.425,144.258,207.475,144.258z"/>
		</g>
	</g>
</g>
</svg>