<?xml version="1.0" encoding="UTF-8" standalone="no"?>
<!-- Uploaded to: SVG Repo, www.svgrepo.com, Generator: SVG Repo Mixer Tools -->

<svg
   height="800px"
   width="800px"
   version="1.1"
   id="Capa_1"
   viewBox="0 0 450.217 450.217"
   xml:space="preserve"
   sodipodi:docname="Zoom-light.svg"
   inkscape:version="1.1 (c68e22c387, 2021-05-23)"
   xmlns:inkscape="http://www.inkscape.org/namespaces/inkscape"
   xmlns:sodipodi="http://sodipodi.sourceforge.net/DTD/sodipodi-0.dtd"
   xmlns="http://www.w3.org/2000/svg"
   xmlns:svg="http://www.w3.org/2000/svg"><defs
   id="defs17" /><sodipodi:namedview
   id="namedview15"
   pagecolor="#ffffff"
   bordercolor="#111111"
   borderopacity="1"
   inkscape:pageshadow="0"
   inkscape:pageopacity="0"
   inkscape:pagecheckerboard="1"
   showgrid="false"
   inkscape:zoom="0.470625"
   inkscape:cx="199.7344"
   inkscape:cy="430.27888"
   inkscape:window-width="2560"
   inkscape:window-height="1377"
   inkscape:window-x="-8"
   inkscape:window-y="-8"
   inkscape:window-maximized="1"
   inkscape:current-layer="Capa_1" />
<g
   id="g12"
   style="fill:#ff0000;fill-opacity:1">
	<g
   id="g10"
   style="fill:#ff0000;fill-opacity:1">
		<g
   id="g4"
   style="fill:#ff0000;fill-opacity:1">
			<path
   style="fill:#ff0000;fill-opacity:1"
   d="M 441.391,398.682 276.917,234.209 c 16.282,-24.491 25.028,-53.193 25.028,-83.253 0,-40.31 -15.713,-78.229 -44.236,-106.744 C 229.211,15.704 191.315,0 150.981,0 110.655,0 72.735,15.704 44.212,44.211 15.705,72.734 0.009,110.646 0.009,150.956 c 0,40.318 15.696,78.229 44.211,106.753 28.523,28.507 66.427,44.211 106.744,44.211 30.076,0 58.778,-8.746 83.261,-25.004 L 398.65,441.349 c 5.698,5.714 13.29,8.868 21.37,8.868 8.064,0 15.648,-3.129 21.386,-8.844 11.739,-11.786 11.739,-30.929 -0.015,-42.691 z M 220.326,220.317 c -18.525,18.517 -43.146,28.726 -69.361,28.726 -26.19,0 -50.82,-10.209 -69.353,-28.726 -18.533,-18.533 -28.735,-43.163 -28.735,-69.361 0,-26.207 10.201,-50.828 28.726,-69.353 18.533,-18.533 43.171,-28.735 69.369,-28.735 26.207,0 50.828,10.201 69.361,28.735 18.517,18.517 28.71,43.138 28.71,69.353 0.001,26.198 -10.192,50.828 -28.717,69.361 z"
   id="path2" />
		</g>
		<g
   id="g8"
   style="fill:#ff0000;fill-opacity:1">
			<path
   style="fill:#ff0000;fill-opacity:1"
   d="m 207.475,144.258 h -45.512 v -45.52 c 0,-3.942 -3.203,-7.129 -7.153,-7.129 -3.926,0 -7.137,3.195 -7.137,7.129 v 45.52 h -45.52 c -3.942,0 -7.129,3.195 -7.129,7.137 0,3.942 3.186,7.145 7.129,7.145 h 45.52 v 45.512 c 0,3.942 3.211,7.145 7.137,7.145 3.95,0 7.153,-3.203 7.153,-7.145 V 158.54 h 45.512 c 3.95,0 7.153,-3.203 7.153,-7.145 0,-3.942 -3.203,-7.137 -7.153,-7.137 z"
   id="path6" />
		</g>
	</g>
</g>
</svg>
