<?xml version="1.0" encoding="UTF-8" standalone="no"?>
<!-- Created with Inkscape (http://www.inkscape.org/) -->

<svg
   width="256"
   height="256"
   viewBox="0 0 256 256"
   version="1.1"
   id="svg1"
   sodipodi:docname="Zębatka-light.svg"
   inkscape:version="1.3.2 (091e20e, 2023-11-25, custom)"
   xmlns:inkscape="http://www.inkscape.org/namespaces/inkscape"
   xmlns:sodipodi="http://sodipodi.sourceforge.net/DTD/sodipodi-0.dtd"
   xmlns="http://www.w3.org/2000/svg"
   xmlns:svg="http://www.w3.org/2000/svg">
  <sodipodi:namedview
     id="namedview1"
     pagecolor="#ffffff"
     bordercolor="#999999"
     borderopacity="1"
     inkscape:showpageshadow="0"
     inkscape:pageopacity="0"
     inkscape:pagecheckerboard="0"
     inkscape:deskcolor="#d1d1d1"
     inkscape:document-units="mm"
     inkscape:zoom="2.328125"
     inkscape:cx="111.24832"
     inkscape:cy="142.81879"
     inkscape:window-width="1920"
     inkscape:window-height="1017"
     inkscape:window-x="-8"
     inkscape:window-y="-8"
     inkscape:window-maximized="1"
     inkscape:current-layer="svg1" />
  <defs
     id="defs1" />
  <g
     inkscape:label="Warstwa 1"
     inkscape:groupmode="layer"
     id="layer1"
     style="display:none" />
  <g
     inkscape:label="Rendered Gears"
     transform="translate(128,128)"
     id="g69"
     style="display:none;fill:#2ad62d;fill-opacity:1;stroke-width:1.00157;stroke-dasharray:none">
    <path
       style="fill:#2ad62d;fill-opacity:1;stroke:#000000;stroke-width:1.00157;stroke-dasharray:none"
       d="m 86.6064,-12.7178 11.0537,-1.6232 6.4839,0.6302 18.285,8.27753 V 5.43327 l -18.285,8.27753 -6.4839,0.6302 -11.0537,-1.6232 -5.2441,19.5715 10.3843,4.1211 5.2998,3.7875 11.6966,16.3112 -5.433,9.4106 -19.9744,-1.974 -5.93,-2.696 -8.7611,-6.9325 -14.3273,14.3273 6.9325,8.7611 2.696,5.93 1.974,19.9744 -9.4106,5.433 L 40.1979,97.0464 36.4104,91.7466 32.2893,81.3623 12.7178,86.6064 14.341,97.6601 13.7108,104.144 5.43327,122.429 H -5.43327 l -8.27753,-18.285 -0.6302,-6.4839 1.6232,-11.0537 -19.5715,-5.2441 -4.1211,10.3843 -3.7875,5.2998 -16.3112,11.6966 -9.4106,-5.433 1.974,-19.9744 2.696,-5.93 6.9325,-8.7611 -14.3273,-14.3273 -8.7611,6.9325 -5.93,2.696 -19.9744,1.974 -5.433,-9.4106 11.6966,-16.3112 5.2998,-3.7875 10.3843,-4.1211 -5.2441,-19.5715 -11.0537,1.6232 -6.4839,-0.6302 -18.285,-8.27753 V -5.43327 l 18.285,-8.27753 6.4839,-0.6302 11.0537,1.6232 5.2441,-19.5715 -10.3843,-4.1211 -5.2998,-3.7875 -11.6966,-16.3112 5.433,-9.4106 19.9744,1.974 5.93,2.696 8.7611,6.9325 14.3273,-14.3273 -6.9325,-8.7611 -2.696,-5.93 -1.974,-19.9744 9.4106,-5.433 16.3112,11.6966 3.7875,5.2998 4.1211,10.3843 19.5715,-5.2441 -1.6232,-11.0537 0.6302,-6.4839 8.27753,-18.285 H 5.43327 l 8.27753,18.285 0.6302,6.4839 -1.6232,11.0537 19.5715,5.2441 4.1211,-10.3843 3.7875,-5.2998 16.3112,-11.6966 9.4106,5.433 -1.974,19.9744 -2.696,5.93 -6.9325,8.7611 14.3273,14.3273 8.7611,-6.9325 5.93,-2.696 19.9744,-1.974 5.433,9.4106 -11.6966,16.3112 -5.2998,3.7875 -10.3843,4.1211 z"
       id="path68" />
    <circle
       style="fill:#2ad62d;fill-opacity:1;stroke:#000000;stroke-width:1.00157;stroke-dasharray:none"
       id="path69"
       cx="0"
       cy="0"
       r="50" />
  </g>
  <g
     inkscape:label="Rendered Gears"
     transform="translate(128,128)"
     id="g84"
     style="display:none;fill:#d62a2f;fill-opacity:1">
    <path
       style="fill:#d62a2f;fill-opacity:1;stroke:#000000;stroke-width:1"
       d="m 74.696,-16.0188 18.8924,-4.0516 6.3136,0.1987 27.236,12.98356 V 6.88814 L 99.902,19.8717 93.5884,20.0704 74.696,16.0188 64.1451,41.491 80.3689,51.9851 84.6928,56.5899 94.7704,85.0291 85.0291,94.7704 56.5899,84.6928 51.9851,80.3689 41.491,64.1451 16.0188,74.696 20.0704,93.5884 19.8717,99.902 6.88814,127.138 H -6.88814 L -19.8717,99.902 -20.0704,93.5884 -16.0188,74.696 -41.491,64.1451 l -10.4941,16.2238 -4.6048,4.3239 -28.4392,10.0776 -9.7413,-9.7413 10.0776,-28.4392 4.3239,-4.6048 L -64.1451,41.491 -74.696,16.0188 -93.5884,20.0704 -99.902,19.8717 -127.138,6.88814 V -6.88814 l 27.236,-12.98356 6.3136,-0.1987 18.8924,4.0516 10.5509,-25.4722 -16.2238,-10.4941 -4.3239,-4.6048 -10.0776,-28.4392 9.7413,-9.7413 28.4392,10.0776 4.6048,4.3239 10.4941,16.2238 25.4722,-10.5509 -4.0516,-18.8924 0.1987,-6.3136 12.98356,-27.236 H 6.88814 l 12.98356,27.236 0.1987,6.3136 -4.0516,18.8924 25.4722,10.5509 10.4941,-16.2238 4.6048,-4.3239 28.4392,-10.0776 9.7413,9.7413 -10.0776,28.4392 -4.3239,4.6048 -16.2238,10.4941 z"
       id="path83" />
    <circle
       style="fill:#d62a2f;fill-opacity:1;stroke:#000000;stroke-width:1"
       id="path84"
       cx="0"
       cy="0"
       r="50" />
  </g>
  <g
     inkscape:label="Rendered Gears"
     transform="translate(128,128)"
     id="g93"
     style="display:none;fill:#d62a2f;fill-opacity:1;stroke-width:1.00157;stroke-dasharray:none">
    <path
       style="fill:#d62a2f;fill-opacity:1;stroke:#000000;stroke-width:1.00157;stroke-dasharray:none"
       d="m 94.4797,-13.874 12.0583,-1.7707 7.073,0.6875 19.948,9.03 V 5.9272 l -19.948,9.03 -7.073,0.6875 -12.0583,-1.7707 -5.7209,21.3506 11.3282,4.4958 5.782,4.1319 12.76,17.7939 -5.927,10.2663 -21.7904,-2.1536 -6.4691,-2.941 -9.5576,-7.5628 -15.6298,15.6298 7.5628,9.5576 2.941,6.4691 2.1536,21.7904 -10.2663,5.927 -17.7939,-12.76 -4.1319,-5.782 -4.4958,-11.3282 -21.3506,5.7209 1.7707,12.0583 -0.6875,7.073 -9.03,19.948 H -5.9272 l -9.03,-19.948 -0.6875,-7.073 1.7707,-12.0583 -21.3506,-5.7209 -4.4958,11.3282 -4.1319,5.782 -17.7939,12.76 -10.2663,-5.927 2.1536,-21.7904 2.941,-6.4691 7.5628,-9.5576 -15.6298,-15.6298 -9.5576,7.5628 -6.4691,2.941 -21.7904,2.1536 -5.927,-10.2663 12.76,-17.7939 5.782,-4.1319 11.3282,-4.4958 -5.7209,-21.3506 -12.0583,1.7707 -7.073,-0.6875 -19.948,-9.03 V -5.9272 l 19.948,-9.03 7.073,-0.6875 12.0583,1.7707 5.7209,-21.3506 -11.3282,-4.4958 -5.782,-4.1319 -12.76,-17.7939 5.927,-10.2663 21.7904,2.1536 6.4691,2.941 9.5576,7.5628 15.6298,-15.6298 -7.5628,-9.5576 -2.941,-6.4691 -2.1536,-21.7904 10.2663,-5.927 17.7939,12.76 4.1319,5.782 4.4958,11.3282 21.3506,-5.7209 -1.7707,-12.0583 0.6875,-7.073 9.03,-19.948 H 5.9272 l 9.03,19.948 0.6875,7.073 -1.7707,12.0583 21.3506,5.7209 4.4958,-11.3282 4.1319,-5.782 17.7939,-12.76 10.2663,5.927 -2.1536,21.7904 -2.941,6.4691 -7.5628,9.5576 15.6298,15.6298 9.5576,-7.5628 6.4691,-2.941 21.7904,-2.1536 5.927,10.2663 -12.76,17.7939 -5.782,4.1319 -11.3282,4.4958 z"
       id="path92" />
    <circle
       style="fill:#d62a2f;fill-opacity:1;stroke:#000000;stroke-width:1.00157;stroke-dasharray:none"
       id="path93"
       cx="0"
       cy="0"
       r="60" />
  </g>
  <g
     inkscape:label="Rendered Gears"
     transform="translate(128,128)"
     id="g79"
     style="display:inline;fill:#2ad62d;fill-opacity:1">
    <path
       style="fill:#000000;fill-opacity:1;stroke:#000000;stroke-width:1.75748031;stroke-opacity:1;stroke-dasharray:none"
       d="m 86.7657,-11.5813 15.7713,-2.1052 1.607,-0.0243 18.159,5.94571 V 7.76509 l -18.159,5.94571 -1.607,-0.0243 -15.7713,-2.1052 -5.8337,21.7718 14.7109,6.0626 1.4035,0.7822 12.7536,14.2289 -7.765,13.4495 -18.6994,-3.9306 -1.3791,-0.8244 -12.6059,-9.7087 -15.938,15.938 9.7087,12.6059 0.8244,1.3791 3.9306,18.6994 L 54.4268,109.8 40.1979,97.0464 39.4157,95.6429 33.3531,80.932 l -21.7718,5.8337 2.1052,15.7713 0.0243,1.607 -5.94571,18.159 H -7.76509 l -5.94571,-18.159 0.0243,-1.607 2.1052,-15.7713 -21.7718,-5.8337 -6.0626,14.7109 -0.7822,1.4035 -14.2289,12.7536 -13.4495,-7.765 3.9306,-18.6994 0.8244,-1.3791 9.7087,-12.6059 -15.938,-15.938 -12.6059,9.7087 -1.3791,0.8244 -18.6994,3.9306 -7.765,-13.4495 12.7536,-14.2289 1.4035,-0.7822 14.7109,-6.0626 -5.8337,-21.7718 -15.7713,2.1052 -1.607,0.0243 -18.159,-5.94571 V -7.76509 l 18.159,-5.94571 1.607,0.0243 15.7713,2.1052 5.8337,-21.7718 -14.7109,-6.0626 -1.4035,-0.7822 -12.7536,-14.2289 7.765,-13.4495 18.6994,3.9306 1.3791,0.8244 12.6059,9.7087 15.938,-15.938 -9.7087,-12.6059 -0.8244,-1.3791 -3.9306,-18.6994 13.4495,-7.765 14.2289,12.7536 0.7822,1.4035 6.0626,14.7109 21.7718,-5.8337 -2.1052,-15.7713 -0.0243,-1.607 5.94571,-18.159 H 7.76509 l 5.94571,18.159 -0.0243,1.607 -2.1052,15.7713 21.7718,5.8337 6.0626,-14.7109 0.7822,-1.4035 14.2289,-12.7536 13.4495,7.765 -3.9306,18.6994 -0.8244,1.3791 -9.7087,12.6059 15.938,15.938 12.6059,-9.7087 1.3791,-0.8244 18.6994,-3.9306 7.765,13.4495 -12.7536,14.2289 -1.4035,0.7822 -14.7109,6.0626 z"
       id="path78" />
    <circle
       style="fill:#ffffff;fill-opacity:1;stroke:#000000;stroke-width:2.13543307;stroke-dasharray:none;stroke-opacity:1"
       id="path79"
       cx="0"
       cy="0"
       r="60" />
  </g>
</svg>
