<?xml version="1.0" encoding="UTF-8" standalone="no"?>
<!-- Created with Inkscape (http://www.inkscape.org/) -->

<svg
   width="256"
   height="256"
   viewBox="0 0 256 256"
   version="1.1"
   id="svg1"
   sodipodi:docname="Zębatka-dark.svg"
   inkscape:version="1.3.2 (091e20e, 2023-11-25, custom)"
   xmlns:inkscape="http://www.inkscape.org/namespaces/inkscape"
   xmlns:sodipodi="http://sodipodi.sourceforge.net/DTD/sodipodi-0.dtd"
   xmlns="http://www.w3.org/2000/svg"
   xmlns:svg="http://www.w3.org/2000/svg">
  <sodipodi:namedview
     id="namedview1"
     pagecolor="#ffffff"
     bordercolor="#999999"
     borderopacity="1"
     inkscape:showpageshadow="0"
     inkscape:pageopacity="0"
     inkscape:pagecheckerboard="0"
     inkscape:deskcolor="#d1d1d1"
     inkscape:document-units="mm"
     inkscape:zoom="2.328125"
     inkscape:cx="111.24832"
     inkscape:cy="142.81879"
     inkscape:window-width="1920"
     inkscape:window-height="1017"
     inkscape:window-x="-8"
     inkscape:window-y="-8"
     inkscape:window-maximized="1"
     inkscape:current-layer="svg1" />
  <defs
     id="defs1" />
  <g
     inkscape:label="Warstwa 1"
     inkscape:groupmode="layer"
     id="layer1"
     style="display:none" />
  <g
     inkscape:label="Rendered Gears"
     transform="translate(128,128)"
     id="g69"
     style="display:none;fill:#2ad62d;fill-opacity:1;stroke-width:1.00157;stroke-dasharray:none">
    <path
       style="fill:#2ad62d;fill-opacity:1;stroke:#000000;stroke-width:1.00157;stroke-dasharray:none"
       d="m 86.6064,-12.7178 11.0537,-1.6232 6.4839,0.6302 18.285,8.27753 V 5.43327 l -18.285,8.27753 -6.4839,0.6302 -11.0537,-1.6232 -5.2441,19.5715 10.3843,4.1211 5.2998,3.7875 11.6966,16.3112 -5.433,9.4106 -19.9744,-1.974 -5.93,-2.696 -8.7611,-6.9325 -14.3273,14.3273 6.9325,8.7611 2.696,5.93 1.974,19.9744 -9.4106,5.433 L 40.1979,97.0464 36.4104,91.7466 32.2893,81.3623 12.7178,86.6064 14.341,97.6601 13.7108,104.144 5.43327,122.429 H -5.43327 l -8.27753,-18.285 -0.6302,-6.4839 1.6232,-11.0537 -19.5715,-5.2441 -4.1211,10.3843 -3.7875,5.2998 -16.3112,11.6966 -9.4106,-5.433 1.974,-19.9744 2.696,-5.93 6.9325,-8.7611 -14.3273,-14.3273 -8.7611,6.9325 -5.93,2.696 -19.9744,1.974 -5.433,-9.4106 11.6966,-16.3112 5.2998,-3.7875 10.3843,-4.1211 -5.2441,-19.5715 -11.0537,1.6232 -6.4839,-0.6302 -18.285,-8.27753 V -5.43327 l 18.285,-8.27753 6.4839,-0.6302 11.0537,1.6232 5.2441,-19.5715 -10.3843,-4.1211 -5.2998,-3.7875 -11.6966,-16.3112 5.433,-9.4106 19.9744,1.974 5.93,2.696 8.7611,6.9325 14.3273,-14.3273 -6.9325,-8.7611 -2.696,-5.93 -1.974,-19.9744 9.4106,-5.433 16.3112,11.6966 3.7875,5.2998 4.1211,10.3843 19.5715,-5.2441 -1.6232,-11.0537 0.6302,-6.4839 8.27753,-18.285 H 5.43327 l 8.27753,18.285 0.6302,6.4839 -1.6232,11.0537 19.5715,5.2441 4.1211,-10.3843 3.7875,-5.2998 16.3112,-11.6966 9.4106,5.433 -1.974,19.9744 -2.696,5.93 -6.9325,8.7611 14.3273,14.3273 8.7611,-6.9325 5.93,-2.696 19.9744,-1.974 5.433,9.4106 -11.6966,16.3112 -5.2998,3.7875 -10.3843,4.1211 z"
       id="path68" />
    <circle
       style="fill:#2ad62d;fill-opacity:1;stroke:#000000;stroke-width:1.00157;stroke-dasharray:none"
       id="path69"
       cx="0"
       cy="0"
       r="50" />
  </g>
  <g
     inkscape:label="Rendered Gears"
     transform="translate(128,128)"
     id="g84"
     style="display:none;fill:#d62a2f;fill-opacity:1">
    <path
       style="fill:#d62a2f;fill-opacity:1;stroke:#000000;stroke-width:1"
       d="m 74.696,-16.0188 18.8924,-4.0516 6.3136,0.1987 27.236,12.98356 V 6.88814 L 99.902,19.8717 93.5884,20.0704 74.696,16.0188 64.1451,41.491 80.3689,51.9851 84.6928,56.5899 94.7704,85.0291 85.0291,94.7704 56.5899,84.6928 51.9851,80.3689 41.491,64.1451 16.0188,74.696 20.0704,93.5884 19.8717,99.902 6.88814,127.138 H -6.88814 L -19.8717,99.902 -20.0704,93.5884 -16.0188,74.696 -41.491,64.1451 l -10.4941,16.2238 -4.6048,4.3239 -28.4392,10.0776 -9.7413,-9.7413 10.0776,-28.4392 4.3239,-4.6048 L -64.1451,41.491 -74.696,16.0188 -93.5884,20.0704 -99.902,19.8717 -127.138,6.88814 V -6.88814 l 27.236,-12.98356 6.3136,-0.1987 18.8924,4.0516 10.5509,-25.4722 -16.2238,-10.4941 -4.3239,-4.6048 -10.0776,-28.4392 9.7413,-9.7413 28.4392,10.0776 4.6048,4.3239 10.4941,16.2238 25.4722,-10.5509 -4.0516,-18.8924 0.1987,-6.3136 12.98356,-27.236 H 6.88814 l 12.98356,27.236 0.1987,6.3136 -4.0516,18.8924 25.4722,10.5509 10.4941,-16.2238 4.6048,-4.3239 28.4392,-10.0776 9.7413,9.7413 -10.0776,28.4392 -4.3239,4.6048 -16.2238,10.4941 z"
       id="path83" />
    <circle
       style="fill:#d62a2f;fill-opacity:1;stroke:#000000;stroke-width:1"
       id="path84"
       cx="0"
       cy="0"
       r="50" />
  </g>
  <g
     inkscape:label="Rendered Gears"
     transform="translate(128,128)"
     id="g93"
     style="display:none;fill:#d62a2f;fill-opacity:1;stroke-width:1.00157;stroke-dasharray:none">
    <path
       style="fill:#d62a2f;fill-opacity:1;stroke:#000000;stroke-width:1.00157;stroke-dasharray:none"
       d="m 94.4797,-13.874 12.0583,-1.7707 7.073,0.6875 19.948,9.03 V 5.9272 l -19.948,9.03 -7.073,0.6875 -12.0583,-1.7707 -5.7209,21.3506 11.3282,4.4958 5.782,4.1319 12.76,17.7939 -5.927,10.2663 -21.7904,-2.1536 -6.4691,-2.941 -9.5576,-7.5628 -15.6298,15.6298 7.5628,9.5576 2.941,6.4691 2.1536,21.7904 -10.2663,5.927 -17.7939,-12.76 -4.1319,-5.782 -4.4958,-11.3282 -21.3506,5.7209 1.7707,12.0583 -0.6875,7.073 -9.03,19.948 H -5.9272 l -9.03,-19.948 -0.6875,-7.073 1.7707,-12.0583 -21.3506,-5.7209 -4.4958,11.3282 -4.1319,5.782 -17.7939,12.76 -10.2663,-5.927 2.1536,-21.7904 2.941,-6.4691 7.5628,-9.5576 -15.6298,-15.6298 -9.5576,7.5628 -6.4691,2.941 -21.7904,2.1536 -5.927,-10.2663 12.76,-17.7939 5.782,-4.1319 11.3282,-4.4958 -5.7209,-21.3506 -12.0583,1.7707 -7.073,-0.6875 -19.948,-9.03 V -5.9272 l 19.948,-9.03 7.073,-0.6875 12.0583,1.7707 5.7209,-21.3506 -11.3282,-4.4958 -5.782,-4.1319 -12.76,-17.7939 5.927,-10.2663 21.7904,2.1536 6.4691,2.941 9.5576,7.5628 15.6298,-15.6298 -7.5628,-9.5576 -2.941,-6.4691 -2.1536,-21.7904 10.2663,-5.927 17.7939,12.76 4.1319,5.782 4.4958,11.3282 21.3506,-5.7209 -1.7707,-12.0583 0.6875,-7.073 9.03,-19.948 H 5.9272 l 9.03,19.948 0.6875,7.073 -1.7707,12.0583 21.3506,5.7209 4.4958,-11.3282 4.1319,-5.782 17.7939,-12.76 10.2663,5.927 -2.1536,21.7904 -2.941,6.4691 -7.5628,9.5576 15.6298,15.6298 9.5576,-7.5628 6.4691,-2.941 21.7904,-2.1536 5.927,10.2663 -12.76,17.7939 -5.782,4.1319 -11.3282,4.4958 z"
       id="path92" />
    <circle
       style="fill:#d62a2f;fill-opacity:1;stroke:#000000;stroke-width:1.00157;stroke-dasharray:none"
       id="path93"
       cx="0"
       cy="0"
       r="60" />
  </g>
  <g
     inkscape:label="Rendered Gears"
     transform="translate(128,128)"
     id="g79"
     style="display:inline;fill:#2ad62d;fill-opacity:1">
    <path
       style="fill:none;fill-opacity:1;stroke:#000000;stroke-width:1.75748031;stroke-opacity:1;stroke-dasharray:none"
       d="m 86.7657,-11.5813 15.7713,-2.1052 1.607,-0.0243 18.159,5.94571 V 7.76509 l -18.159,5.94571 -1.607,-0.0243 -15.7713,-2.1052 -5.8337,21.7718 14.7109,6.0626 1.4035,0.7822 12.7536,14.2289 -7.765,13.4495 -18.6994,-3.9306 -1.3791,-0.8244 -12.6059,-9.7087 -15.938,15.938 9.7087,12.6059 0.8244,1.3791 3.9306,18.6994 L 54.4268,109.8 40.1979,97.0464 39.4157,95.6429 33.3531,80.932 l -21.7718,5.8337 2.1052,15.7713 0.0243,1.607 -5.94571,18.159 H -7.76509 l -5.94571,-18.159 0.0243,-1.607 2.1052,-15.7713 -21.7718,-5.8337 -6.0626,14.7109 -0.7822,1.4035 -14.2289,12.7536 -13.4495,-7.765 3.9306,-18.6994 0.8244,-1.3791 9.7087,-12.6059 -15.938,-15.938 -12.6059,9.7087 -1.3791,0.8244 -18.6994,3.9306 -7.765,-13.4495 12.7536,-14.2289 1.4035,-0.7822 14.7109,-6.0626 -5.8337,-21.7718 -15.7713,2.1052 -1.607,0.0243 -18.159,-5.94571 V -7.76509 l 18.159,-5.94571 1.607,0.0243 15.7713,2.1052 5.8337,-21.7718 -14.7109,-6.0626 -1.4035,-0.7822 -12.7536,-14.2289 7.765,-13.4495 18.6994,3.9306 1.3791,0.8244 12.6059,9.7087 15.938,-15.938 -9.7087,-12.6059 -0.8244,-1.3791 -3.9306,-18.6994 13.4495,-7.765 14.2289,12.7536 0.7822,1.4035 6.0626,14.7109 21.7718,-5.8337 -2.1052,-15.7713 -0.0243,-1.607 5.94571,-18.159 H 7.76509 l 5.94571,18.159 -0.0243,1.607 -2.1052,15.7713 21.7718,5.8337 6.0626,-14.7109 0.7822,-1.4035 14.2289,-12.7536 13.4495,7.765 -3.9306,18.6994 -0.8244,1.3791 -9.7087,12.6059 15.938,15.938 12.6059,-9.7087 1.3791,-0.8244 18.6994,-3.9306 7.765,13.4495 -12.7536,14.2289 -1.4035,0.7822 -14.7109,6.0626 z"
       id="path78" />
    <circle
       style="fill:none;fill-opacity:1;stroke:#000000;stroke-width:2.13543307;stroke-dasharray:none;stroke-opacity:1"
       id="path79"
       cx="0"
       cy="0"
       r="60" />
  </g>
  <path
     style="fill:#ffffff;fill-opacity:1;stroke:#000000;stroke-width:0.754891;stroke-miterlimit:3.9;stroke-dasharray:none;stroke-opacity:1;paint-order:stroke fill markers"
     d="m 120.91707,248.81606 c -2.24974,-6.42711 -5.37302,-16.88827 -5.37167,-17.99197 9.8e-4,-0.80023 0.47378,-4.92847 1.05068,-9.17387 0.57689,-4.24539 1.01099,-7.73911 0.96466,-7.76381 -0.46484,-0.24785 -23.588419,-6.246 -23.664175,-6.13838 -0.05598,0.0795 -1.517999,3.62378 -3.248928,7.87613 -1.730934,4.25235 -3.360936,8.00678 -3.622228,8.34317 -0.261292,0.33639 -3.429868,3.27296 -7.04128,6.5257 l -6.566207,5.91407 -5.675404,-3.26259 c -3.121473,-1.79442 -5.825469,-3.39273 -6.008883,-3.55179 -0.32606,-0.28277 2.796302,-16.1361 3.512527,-17.83433 0.199267,-0.47248 2.728839,-3.92749 5.621274,-7.67779 l 5.258966,-6.81873 -8.528971,-8.53697 c -4.690938,-4.69534 -8.692127,-8.53698 -8.891537,-8.53698 -0.199409,0 -3.293839,2.25325 -6.876512,5.00723 -3.582669,2.75397 -6.707234,5.15255 -6.943476,5.33017 -0.476801,0.3585 -16.573017,3.8371 -17.755037,3.8371 -0.508067,0 -1.80826,-1.85576 -4.073219,-5.81368 -2.943639,-5.14389 -3.2616,-5.90695 -2.759861,-6.62329 0.31189,-0.44528 3.096548,-3.59325 6.188129,-6.99547 l 5.621057,-6.18587 7.83006,-3.19085 c 4.306532,-1.75496 7.925435,-3.42759 8.042007,-3.71694 0.21166,-0.52538 -5.319259,-21.96778 -5.915131,-22.93192 -0.237943,-0.385 -2.420869,-0.22762 -8.950935,0.64534 l -8.636246,1.15451 -8.802123,-2.87273 -8.8021238,-2.87273 V 128 121.04121 l 8.8021238,-2.87273 8.802123,-2.87273 8.636246,1.15451 c 6.530066,0.87296 8.712992,1.03034 8.950935,0.64534 0.595872,-0.96414 6.126791,-22.406539 5.915131,-22.931919 -0.116572,-0.289353 -3.735475,-1.961978 -8.042007,-3.716944 l -7.83006,-3.190847 -5.621057,-6.18587 c -3.091581,-3.402223 -5.881922,-6.558304 -6.200757,-7.013502 -0.518632,-0.74045 -0.227107,-1.438175 2.767353,-6.623287 2.250854,-3.897506 3.589017,-5.795647 4.085847,-5.795647 1.176781,0 17.272577,3.479976 17.747545,3.837092 0.236242,0.177619 3.360807,2.576202 6.943476,5.330178 3.582673,2.753975 6.677103,5.007226 6.876512,5.007226 0.19941,0 4.200599,-3.84164 8.891537,-8.536977 l 8.528971,-8.536977 -5.258966,-6.818727 c -2.892435,-3.750301 -5.422007,-7.205305 -5.621274,-7.677788 -0.716225,-1.69823 -3.838587,-17.551556 -3.512527,-17.834329 0.183414,-0.159064 2.88741,-1.757371 6.008883,-3.551792 l 5.675404,-3.262584 6.566207,5.914068 c 3.611412,3.252736 6.781311,6.189299 7.044218,6.525694 0.262907,0.336395 1.894945,4.090822 3.626747,8.343171 1.731805,4.252349 3.1925,7.796607 3.245989,7.876129 0.07245,0.1077 23.197557,-5.891997 23.659657,-6.138381 0.0463,-0.0247 -0.38777,-3.518417 -0.96466,-7.763813 -0.5769,-4.245396 -1.04574,-8.395412 -1.04188,-9.222257 0.004,-0.826846 1.23632,-5.272483 2.73881,-9.879195 L 121.0248,6.8724832 H 128 h 6.9752 l 2.73179,8.3758388 c 1.50249,4.606712 2.73495,9.052349 2.73881,9.879195 0.004,0.826845 -0.46498,4.976861 -1.04188,9.222257 -0.57689,4.245396 -1.01099,7.739112 -0.96466,7.763813 0.46484,0.247848 23.58842,6.246001 23.66418,6.138381 0.056,-0.07952 1.51799,-3.62378 3.24892,-7.876129 1.73094,-4.252349 3.36094,-8.006776 3.62223,-8.343171 0.26129,-0.336395 3.42987,-3.272958 7.04128,-6.525694 l 6.56621,-5.914068 5.6754,3.262584 c 3.12148,1.794421 5.82547,3.392728 6.00888,3.551792 0.32607,0.282773 -2.7963,16.136099 -3.51252,17.834329 -0.19927,0.472483 -2.72884,3.927487 -5.62128,7.677788 l -5.25896,6.818727 8.52897,8.536977 c 4.69094,4.695337 8.72407,8.528859 8.96253,8.518942 0.23846,-0.0099 3.49873,-2.398781 7.24506,-5.308577 l 6.8115,-5.290536 8.43682,-1.781206 c 4.64025,-0.979669 8.73047,-1.780072 9.08939,-1.778676 0.54402,0.0021 7.29374,10.885442 7.29374,11.760506 0,0.221621 -3.48807,4.169347 -10.46978,11.849489 -1.5386,1.692516 -2.66934,2.30107 -9.68713,5.213556 -4.36986,1.813558 -8.01764,3.514704 -8.10618,3.780334 -0.17189,0.515664 5.42788,21.999615 5.95757,22.856665 0.23795,0.38501 2.41879,0.22789 8.9428,-0.64425 l 8.62812,-1.15343 8.81025,2.8575 8.81026,2.8575 V 128 v 6.98708 l -8.81026,2.8575 -8.81025,2.8575 -8.62812,-1.15343 c -6.52401,-0.87214 -8.70485,-1.02926 -8.9428,-0.64425 -0.52969,0.85705 -6.12946,22.341 -5.95757,22.85667 0.0885,0.26563 3.73632,1.96677 8.10618,3.78033 7.01779,2.91248 8.14853,3.52104 9.68713,5.21356 6.98171,7.68014 10.46978,11.62786 10.46978,11.84948 0,0.87507 -6.74972,11.7584 -7.29374,11.76051 -0.35892,0.001 -4.44914,-0.79901 -9.08939,-1.77868 l -8.43682,-1.7812 -6.8115,-5.29054 c -3.74633,-2.90979 -7.0066,-5.29865 -7.24506,-5.30857 -0.23846,-0.01 -4.27159,3.8236 -8.96253,8.51894 l -8.52897,8.53697 5.25896,6.81873 c 2.89244,3.7503 5.42201,7.20531 5.62128,7.67779 0.71622,1.69823 3.83859,17.55156 3.51252,17.83433 -0.18341,0.15906 -2.89101,1.75946 -6.01688,3.55643 l -5.68342,3.26723 -6.94134,-6.31557 -6.94134,-6.31558 -3.23839,-7.9463 c -1.78112,-4.37047 -3.28451,-8.01138 -3.34087,-8.0909 -0.0763,-0.10761 -23.1996,5.89031 -23.66486,6.13838 -0.0463,0.0247 0.38777,3.51842 0.96466,7.76381 0.5769,4.2454 1.04574,8.39542 1.04188,9.22226 -0.004,0.82685 -1.23612,5.27249 -2.73836,9.8792 l -2.73134,8.37584 -6.93367,0.11807 c -5.31766,0.0906 -6.97835,-0.01 -7.12536,-0.42953 z m 19.10978,-60.6844 c 25.27346,-5.49691 43.82327,-24.5381 48.35582,-49.63676 0.98427,-5.45032 0.98205,-15.5514 -0.005,-21.01637 C 184.38139,95.341607 169.08772,77.426083 147.9369,70.104376 140.66353,67.586577 136.96143,67.012433 128,67.012433 c -8.96143,0 -12.66353,0.574144 -19.9369,3.091943 -11.928021,4.129082 -22.869814,12.267464 -30.012712,22.323114 -5.015774,7.061116 -8.838318,16.24357 -10.428443,25.05104 -0.988981,5.47779 -0.988981,15.56515 0,21.04294 4.68568,25.95326 24.799398,45.72172 50.928395,50.05419 4.76594,0.79025 16.96089,0.53813 21.47651,-0.444 z"
     id="path94" />
</svg>
